<?xml version="1.0" encoding="UTF-8" standalone="no"?>
<!-- Created with Inkscape (http://www.inkscape.org/) -->

<svg
   version="1.1"
   id="svg1"
   width="237.21333"
   height="143.50667"
   viewBox="0 0 237.21333 143.50667"
   sodipodi:docname="LIbraryFutures_CMYK.eps"
   xmlns:inkscape="http://www.inkscape.org/namespaces/inkscape"
   xmlns:sodipodi="http://sodipodi.sourceforge.net/DTD/sodipodi-0.dtd"
   xmlns="http://www.w3.org/2000/svg"
   xmlns:svg="http://www.w3.org/2000/svg">
  <defs
     id="defs1" />
  <sodipodi:namedview
     id="namedview1"
     pagecolor="#ffffff"
     bordercolor="#000000"
     borderopacity="0.25"
     inkscape:showpageshadow="2"
     inkscape:pageopacity="0.0"
     inkscape:pagecheckerboard="0"
     inkscape:deskcolor="#d1d1d1">
    <inkscape:page
       x="0"
       y="0"
       inkscape:label="1"
       id="page1"
       width="237.21333"
       height="143.50667"
       margin="0"
       bleed="0" />
  </sodipodi:namedview>
  <g
     id="g1"
     inkscape:groupmode="layer"
     inkscape:label="1">
    <g
       id="group-R5">
      <path
         id="path2"
         d="M 59.4297,856.949 V 612.859 H 105 V 559.793 H 0 v 297.156 h 59.4297"
         style="fill:#a80977;fill-opacity:1;fill-rule:nonzero;stroke:none"
         transform="matrix(0.13333333,0,0,-0.13333333,0,143.50667)" />
      <path
         id="path3"
         d="m 204.785,559.793 h -59.437 v 297.156 h 59.437 V 559.793"
         style="fill:#a80977;fill-opacity:1;fill-rule:nonzero;stroke:none"
         transform="matrix(0.13333333,0,0,-0.13333333,0,143.50667)" />
      <path
         id="path4"
         d="m 312.188,610.73 h 14.863 c 7.211,0 10.601,3.399 10.601,10.614 v 53.918 c 0,7.215 -3.39,10.613 -10.601,10.613 h -14.863 z m 14.007,195.274 h -14.007 v -70.465 h 14.007 c 7.219,0 10.61,3.399 10.61,10.613 v 49.235 c 0,7.226 -3.391,10.617 -10.61,10.617 z M 396.656,675.262 V 614.98 c 0,-36.941 -18.25,-55.187 -55.176,-55.187 h -88.3 v 297.156 h 87.445 c 36.93,0 55.191,-18.258 55.191,-55.183 v -44.161 c 0,-25.46 -8.921,-38.199 -24.625,-44.14 17.829,-5.094 25.465,-16.559 25.465,-38.203"
         style="fill:#a80977;fill-opacity:1;fill-rule:nonzero;stroke:none"
         transform="matrix(0.13333333,0,0,-0.13333333,0,143.50667)" />
      <path
         id="path5"
         d="m 516.402,805.156 h -14.445 v -82.351 h 14.445 c 7.211,0 10.602,3.394 10.602,10.609 v 61.133 c 0,7.219 -3.391,10.609 -10.602,10.609 z M 586.859,662.102 V 559.793 H 527.43 v 101.879 c 0,7.215 -3.399,10.609 -10.61,10.609 H 501.957 V 559.793 h -59.43 v 297.156 h 88.723 c 36.93,0 55.191,-18.258 55.191,-55.183 v -57.317 c 0,-25.465 -9.343,-38.203 -25.48,-44.144 18.262,-5.09 25.898,-16.559 25.898,-38.203"
         style="fill:#a80977;fill-opacity:1;fill-rule:nonzero;stroke:none"
         transform="matrix(0.13333333,0,0,-0.13333333,0,143.50667)" />
      <path
         id="path6"
         d="m 688.758,654.875 h 26.738 l -13.578,129.902 z m 95.519,-95.082 H 725.27 l -4.668,43.305 h -37.364 l -4.25,-43.305 h -53.906 l 39.059,297.156 h 81.07 l 39.066,-297.156"
         style="fill:#a80977;fill-opacity:1;fill-rule:nonzero;stroke:none"
         transform="matrix(0.13333333,0,0,-0.13333333,0,143.50667)" />
      <path
         id="path7"
         d="m 899.961,805.156 h -14.445 v -82.351 h 14.445 c 7.215,0 10.613,3.394 10.613,10.609 v 61.133 c 0,7.219 -3.398,10.609 -10.613,10.609 z M 970.418,662.102 V 559.793 h -59.422 v 101.879 c 0,7.215 -3.398,10.609 -10.617,10.609 H 885.516 V 559.793 H 826.09 v 297.156 h 88.723 c 36.925,0 55.187,-18.258 55.187,-55.183 v -57.317 c 0,-25.465 -9.336,-38.203 -25.48,-44.144 18.261,-5.09 25.898,-16.559 25.898,-38.203"
         style="fill:#a80977;fill-opacity:1;fill-rule:nonzero;stroke:none"
         transform="matrix(0.13333333,0,0,-0.13333333,0,143.50667)" />
      <path
         id="path8"
         d="m 1102.69,856.949 h 56.46 L 1109.06,665.488 V 559.793 h -59.44 v 101.461 l -50.089,195.695 h 61.969 l 19.96,-100.613 21.23,100.613"
         style="fill:#a80977;fill-opacity:1;fill-rule:nonzero;stroke:none"
         transform="matrix(0.13333333,0,0,-0.13333333,0,143.50667)" />
      <path
         id="path9"
         d="M 105,516.734 V 463.668 H 59.4297 V 394.051 H 102.875 V 340.984 H 59.4297 V 219.566 H 0 v 297.168 h 105"
         style="fill:#6f0c56;fill-opacity:1;fill-rule:nonzero;stroke:none"
         transform="matrix(0.13333333,0,0,-0.13333333,0,143.50667)" />
      <path
         id="path10"
         d="m 291.801,272.215 c 0,-36.945 -18.262,-55.188 -55.192,-55.188 h -36.086 c -36.929,0 -55.175,18.243 -55.175,55.188 V 516.734 H 204.77 V 278.582 c 0,-7.219 3.398,-10.617 10.617,-10.617 h 6.359 c 7.219,0 10.617,3.398 10.617,10.617 v 238.152 h 59.438 V 272.215"
         style="fill:#6f0c56;fill-opacity:1;fill-rule:nonzero;stroke:none"
         transform="matrix(0.13333333,0,0,-0.13333333,0,143.50667)" />
      <path
         id="path11"
         d="m 362.285,219.566 v 244.102 h -36.078 v 53.066 h 131.59 V 463.668 H 421.715 V 219.566 h -59.43"
         style="fill:#6f0c56;fill-opacity:1;fill-rule:nonzero;stroke:none"
         transform="matrix(0.13333333,0,0,-0.13333333,0,143.50667)" />
      <path
         id="path12"
         d="m 638.66,272.215 c 0,-36.945 -18.262,-55.188 -55.187,-55.188 h -36.09 c -36.93,0 -55.176,18.243 -55.176,55.188 v 244.519 h 59.43 V 278.582 c 0,-7.219 3.398,-10.617 10.609,-10.617 h 6.367 c 7.211,0 10.61,3.398 10.61,10.617 V 516.734 H 638.66 V 272.215"
         style="fill:#6f0c56;fill-opacity:1;fill-rule:nonzero;stroke:none"
         transform="matrix(0.13333333,0,0,-0.13333333,0,143.50667)" />
      <path
         id="path13"
         d="m 753.305,464.938 h -14.442 v -82.352 h 14.442 c 7.211,0 10.613,3.398 10.613,10.605 v 61.133 c 0,7.215 -3.402,10.614 -10.613,10.614 z M 823.766,321.883 V 219.566 h -59.43 v 101.887 c 0,7.215 -3.398,10.606 -10.609,10.606 H 738.863 V 219.566 h -59.429 v 297.168 h 88.718 c 36.93,0 55.192,-18.261 55.192,-55.195 v -57.312 c 0,-25.461 -9.34,-38.204 -25.477,-44.141 18.262,-5.09 25.899,-16.555 25.899,-38.203"
         style="fill:#6f0c56;fill-opacity:1;fill-rule:nonzero;stroke:none"
         transform="matrix(0.13333333,0,0,-0.13333333,0,143.50667)" />
      <path
         id="path14"
         d="m 1152.8,326.969 v -54.754 c 0,-36.945 -18.25,-55.188 -55.19,-55.188 h -33.11 c -36.93,0 -55.18,18.243 -55.18,55.188 v 63.242 h 58.16 v -57.734 c 0,-7.207 3.39,-10.606 10.61,-10.606 h 5.51 c 7.23,0 10.61,3.399 10.61,10.606 v 35.664 c 0,9.336 -2.96,14.004 -10.18,19.109 l -50.93,37.785 c -18.27,13.153 -23.78,25.457 -23.78,46.688 v 47.121 c 0,36.922 18.25,55.183 55.18,55.183 h 32.27 c 36.93,0 55.17,-18.261 55.17,-55.183 v -54.336 h -58.15 v 48.809 c 0,7.214 -3.4,10.613 -10.61,10.613 h -4.67 c -7.22,0 -10.61,-3.399 -10.61,-10.613 v -28.008 c 0,-9.336 2.97,-14.016 10.19,-19.114 l 50.93,-37.781 c 18.25,-13.156 23.78,-24.609 23.78,-46.691"
         style="fill:#6f0c56;fill-opacity:1;fill-rule:nonzero;stroke:none"
         transform="matrix(0.13333333,0,0,-0.13333333,0,143.50667)" />
      <path
         id="path15"
         d="m 970.508,516.734 v -53.066 h -47.403 v -66.66 h 45.293 v -53.055 h -45.293 v -71.32 h 48.262 V 219.566 H 863.68 v 297.168 h 106.828"
         style="fill:#6f0c56;fill-opacity:1;fill-rule:nonzero;stroke:none"
         transform="matrix(0.13333333,0,0,-0.13333333,0,143.50667)" />
      <path
         id="path16"
         d="M 1649.92,688.824 H 1391.61 V 947.137 L 1262.46,1076.29 V 559.672 h 516.62 l -129.16,129.152"
         style="fill:#a80977;fill-opacity:1;fill-rule:nonzero;stroke:none"
         transform="matrix(0.13333333,0,0,-0.13333333,0,143.50667)" />
      <path
         id="path17"
         d="m 1434.67,172.203 172.2,172.207 h -172.2 z"
         style="fill:#6f0c56;fill-opacity:1;fill-rule:nonzero;stroke:none"
         transform="matrix(0.13333333,0,0,-0.13333333,0,143.50667)" />
      <path
         id="path18"
         d="M 1262.46,516.617 V 0 l 129.15,129.156 v 258.313 h 258.31 l 129.16,129.148 h -516.62"
         style="fill:#6f0c56;fill-opacity:1;fill-rule:nonzero;stroke:none"
         transform="matrix(0.13333333,0,0,-0.13333333,0,143.50667)" />
    </g>
  </g>
</svg>
